Patient4_TMGait_0pt4_03_left_05_GRF.mot
version=1
nRows=71
nColumns=19
inDegrees=no
endheader
time	F1x	F1y	F1z	M1x	M1y	M1z	F2x	F2y	F2z	M2x	M2y	M2z	EC1x	EC1y	EC1z	EC2x	EC2y	EC2z
6.1	-1.4615	-4.7313	1.9764	0.89916	-3.202	-3.3011	-33.6517	759.6805	-65.6403	278.4795	83.2697	808.7853	-0.0592	0.0182	-0.0073	-0.0462	0.0165	0.9585
6.1133	-1.1076	-2.4368	1.4048	0.34699	-2.3285	-1.2396	-31.4029	754.4155	-63.7286	276.9564	80.1716	803.8855	-0.0592	0.0182	-0.0073	-0.0462	0.0165	0.9585
6.1266	-0.78459	-0.4637	0.92174	-0.13031	-1.5673	0.49535	-28.9916	750.4538	-62.012	275.8016	77.1635	799.5846	-0.0592	0.0182	-0.0073	-0.0462	0.0165	0.9585
6.1399	-0.52044	1.0743	0.55761	-0.51065	-0.97566	1.8126	-26.5204	748.4183	-60.652	275.2356	74.4583	796.4646	-0.0592	0.0182	-0.0073	-0.0462	0.0165	0.9585
6.1531	-0.34075	2.1798	0.31929	-0.79279	-0.57372	2.7442	-24.0669	748.5246	-59.7197	275.3554	72.1655	794.8075	-0.0592	0.0182	-0.0073	-0.0462	0.0165	0.9585
6.1664	-0.22741	2.8916	0.18743	-0.98157	-0.338	3.3205	-21.6529	750.6068	-59.1971	276.1294	70.2887	794.5445	-0.0592	0.0182	-0.0073	-0.0462	0.0165	0.9585
6.1797	-0.18601	3.273	0.1381	-1.0843	-0.23988	3.6047	-19.2793	754.1889	-59.0096	277.4128	68.7648	795.3049	-0.0592	0.0182	-0.0073	-0.0462	0.0165	0.9585
6.193	-0.1992	3.3566	0.14533	-1.1001	-0.2411	3.6191	-16.9165	758.5282	-59.058	278.9597	67.488	796.4295	-0.0592	0.0182	-0.0073	-0.0462	0.0165	0.9585
6.2063	-0.25682	3.1519	0.18583	-1.0219	-0.3073	3.3529	-14.529	762.7454	-59.2233	280.468	66.3261	797.1085	-0.0592	0.0182	-0.0073	-0.0462	0.0165	0.9585
6.2196	-0.35495	2.6382	0.24252	-0.83558	-0.4124	2.7657	-12.0711	765.9844	-59.405	281.6373	65.1635	796.5526	-0.0592	0.0182	-0.0073	-0.0462	0.0165	0.9585
6.2329	-0.46456	1.7655	0.29783	-0.5223	-0.52454	1.7817	-9.4899	767.572	-59.5111	282.2273	63.894	794.1571	-0.0592	0.0182	-0.0073	-0.0462	0.0165	0.9585
6.2461	-0.57348	0.49404	0.34655	-0.066752	-0.62453	0.35016	-6.749	767.1462	-59.4932	282.0993	62.4573	789.6361	-0.0592	0.0182	-0.0073	-0.0462	0.0165	0.9585
6.2594	-0.63337	-1.1921	0.36815	0.53783	-0.67263	-1.571	-3.8337	764.6625	-59.3351	281.223	60.8308	783.0261	-0.0592	0.0182	-0.0073	-0.0462	0.0165	0.9585
6.2727	-0.60191	-3.2293	0.34688	1.2703	-0.63018	-3.9093	-0.78748	760.35	-59.0884	279.6585	59.0763	774.6581	-0.0592	0.0182	-0.0073	-0.0462	0.0165	0.9585
6.286	-0.3977	-5.4365	0.24186	2.0614	-0.42362	-6.4574	2.3224	754.6194	-58.8363	277.5272	57.301	765.0432	-0.0592	0.0182	-0.0073	-0.0462	0.0165	0.9585
6.2993	0.072207	-7.4168	0.012049	2.7642	0.026225	-8.7585	5.399	748.0165	-58.6928	274.9981	55.6534	754.8269	-0.0592	0.0182	-0.0073	-0.0462	0.0165	0.9585
6.3126	0.90841	-8.4741	-0.39861	3.1231	0.81801	-10.0018	8.3482	741.1254	-58.7489	272.2596	54.2631	744.6678	-0.0592	0.0182	-0.0073	-0.0462	0.0165	0.9585
6.3259	2.2085	-7.5794	-1.0329	2.7574	2.0364	-8.9818	11.0922	734.4298	-59.0745	269.4754	53.2373	735.0986	-0.0592	0.0182	-0.0073	-0.0462	0.0165	0.9585
6.3391	4.0194	-3.2925	-1.9232	1.1424	3.7326	-4.0086	13.581	728.1849	-59.6727	266.7446	52.6049	726.3926	-0.0592	0.0182	-0.0073	-0.0462	0.0165	0.9585
6.3524	6.3168	6.168	-3.054	-2.3695	5.8771	7.0087	15.7948	722.3348	-60.478	264.073	52.3128	718.4828	-0.0592	0.0182	-0.0073	-0.0462	0.0165	0.9585
6.3657	8.9128	22.7572	-4.3437	-8.4861	8.3009	26.3864	17.7309	716.4742	-61.332	261.3511	52.2106	710.9469	-0.0592	0.0182	-0.0073	-0.0462	0.0165	0.9585
6.379	11.3956	48.2443	-5.5959	-17.842	10.6128	56.2242	19.4145	709.7875	-62.024	258.3261	52.0895	702.9335	-0.0592	0.0182	-0.0073	-0.0462	0.0165	0.9585
6.3923	13.0311	83.6048	-6.4516	-30.7743	12.1149	97.7078	20.8515	701.093	-62.3106	254.6115	51.7182	693.2301	-0.0592	0.0182	-0.0073	-0.0462	0.0165	0.9585
6.4056	12.7692	128.184	-6.4043	-47.016	11.8266	150.1273	22.0429	688.9502	-61.9462	249.7217	50.8638	680.3742	-0.0592	0.0182	-0.0073	-0.0462	0.0165	0.9585
6.4189	9.6674	178.8843	-4.8706	-65.3978	8.7281	209.8866	22.9824	671.8465	-60.7132	243.1363	49.3196	662.8413	-0.0592	0.0182	-0.0073	-0.0462	0.0165	0.9585
6.4321	3.9192	229.9769	-1.2491	-83.7879	2.2294	270.2442	23.6567	648.4814	-58.4838	234.4004	46.9641	639.3156	-0.0592	0.0182	-0.0073	-0.0462	0.0165	0.9585
6.4454	-2.954	275.6173	4.5393	-100.0461	-7.1156	324.1842	24.0614	618.0994	-55.284	223.2395	43.8226	609.003	-0.0592	0.0182	-0.0073	-0.0462	0.0165	0.9585
6.4587	-9.7664	313.5916	11.5791	-113.3975	-17.7972	368.8696	24.162	580.7188	-51.3152	209.6332	40.0964	571.8922	-0.0592	0.0182	-0.0073	-0.0462	0.0165	0.9585
6.472	-15.8355	345.4803	19.0975	-124.4558	-28.6374	406.0006	23.9425	536.9864	-46.9232	193.7775	36.1141	528.5938	-0.0592	0.0182	-0.0073	-0.0462	0.0165	0.9585
6.4853	-20.8345	374.3988	26.1733	-134.4177	-38.4836	439.1391	23.3687	488.0155	-42.3733	176.0434	32.126	480.2001	-0.0592	0.0182	-0.0073	-0.0462	0.0165	0.9585
6.4986	-24.7453	403.3602	32.3492	-144.4252	-46.7922	471.8126	22.4023	435.1711	-37.7676	156.9124	28.2299	428.058	-0.0592	0.0182	-0.0073	-0.0462	0.0165	0.9585
6.5119	-27.5574	434.4665	37.2929	-155.2713	-53.214	506.3702	20.9531	379.9299	-33.0777	136.9205	24.4216	373.6245	-0.0592	0.0182	-0.0073	-0.0462	0.0165	0.9585
6.5251	-29.3719	468.8378	41.1967	-167.3485	-58.0051	544.1141	18.8916	323.8081	-28.2935	116.6242	20.7253	318.4071	-0.0592	0.0182	-0.0073	-0.0462	0.0165	0.9585
6.5384	-30.2868	506.776	44.3637	-180.7363	-61.5831	585.4052	16.1469	268.4163	-23.4723	96.6129	17.2087	263.9905	-0.0592	0.0182	-0.0073	-0.0462	0.0165	0.9585
6.5517	-30.4865	547.9069	47.3635	-195.2452	-64.6625	629.8775	12.7298	215.4816	-18.7866	77.5092	14.0149	212.0718	-0.0592	0.0182	-0.0073	-0.0462	0.0165	0.9585
6.565	-30.2345	591.1766	50.5718	-210.4512	-67.7798	676.3637	8.8326	166.7246	-14.4468	59.9327	11.2743	164.3016	-0.0592	0.0182	-0.0073	-0.0462	0.0165	0.9585
6.5783	-29.7945	635.0781	54.2765	-225.7883	-71.3539	723.2102	4.8053	123.7149	-10.6639	44.4398	9.0652	122.189	-0.0592	0.0182	-0.0073	-0.0462	0.0165	0.9585
6.5916	-29.3827	678.0038	58.3436	-240.6884	-75.3277	768.6574	1.1221	87.523	-7.5548	31.4086	7.341	86.7371	-0.0592	0.0182	-0.0073	-0.0462	0.0165	0.9585
6.6049	-29.0345	718.2871	62.4633	-254.5948	-79.3758	810.8452	-1.8292	58.4777	-5.1337	20.9556	5.9912	58.2371	-0.0592	0.0182	-0.0073	-0.0462	0.0165	0.9585
6.6181	-28.7153	754.2275	66.1633	-266.9565	-82.9737	847.8996	-3.8406	36.2473	-3.303	12.9603	4.8633	36.3591	-0.0592	0.0182	-0.0073	-0.0462	0.0165	0.9585
6.6314	-28.2718	784.1446	69.139	-277.2317	-85.7308	877.9743	-4.842	20.0429	-1.9597	7.1378	3.8472	20.3352	-0.0592	0.0182	-0.0073	-0.0462	0.0165	0.9585
6.6447	-27.5579	806.6575	71.1708	-284.9762	-87.3606	899.5714	-4.9355	8.8839	-0.992	3.134	2.8768	9.2401	-0.0592	0.0182	-0.0073	-0.0462	0.0165	0.9585
6.658	-26.4647	820.9121	72.2003	-289.9243	-87.7604	911.7917	-4.3195	1.7552	-0.33771	0.58364	1.9695	2.089	-0.0592	0.0182	-0.0073	-0.0462	0.0165	0.9585
6.6713	-24.9117	826.8189	72.2035	-292.0698	-86.8847	914.5826	-3.3601	-2.2361	0.063505	-0.84055	1.1989	-1.9636	-0.0592	0.0182	-0.0073	-0.0462	0.0165	0.9585
6.6846	-22.8675	825.0959	71.2444	-291.6762	-84.7875	908.7917	-2.3428	-3.9873	0.26387	-1.4619	0.61665	-3.7841	-0.0592	0.0182	-0.0073	-0.0462	0.0165	0.9585
6.6979	-20.3092	817.2041	69.4246	-289.2521	-81.574	896.0547	-1.4421	-4.3008	0.33429	-1.5668	0.21409	-4.1546	-0.0592	0.0182	-0.0073	-0.0462	0.0165	0.9585
6.7111	-17.3169	805.1009	66.9447	-285.459	-77.4793	878.567	-0.73321	-3.7923	0.31844	-1.3769	-0.029154	-3.6795	-0.0592	0.0182	-0.0073	-0.0462	0.0165	0.9585
6.7244	-14.0198	790.8624	64.061	-280.9832	-72.8231	858.6565	-0.21498	-2.9132	0.26069	-1.0535	-0.15861	-2.8216	-0.0592	0.0182	-0.0073	-0.0462	0.0165	0.9585
6.7377	-10.6077	776.4061	61.0661	-276.4455	-67.9846	838.4828	0.10681	-1.9577	0.18777	-0.7035	-0.20326	-1.8674	-0.0592	0.0182	-0.0073	-0.0462	0.0165	0.9585
6.751	-7.2852	763.3172	58.2162	-272.3505	-63.315	819.8385	0.28856	-1.0995	0.12081	-0.38941	-0.19911	-1.0031	-0.0592	0.0182	-0.0073	-0.0462	0.0165	0.9585
6.7643	-4.2398	752.7076	55.7072	-269.0495	-59.0899	803.9876	0.36534	-0.39883	0.067001	-0.13453	-0.16611	-0.28129	-0.0592	0.0182	-0.0073	-0.0462	0.0165	0.9585
6.7776	-1.603	745.2024	53.6759	-266.7281	-55.5027	791.6576	0.36962	0.11507	0.031436	0.053543	-0.12431	0.26565	-0.0592	0.0182	-0.0073	-0.0462	0.0165	0.9585
6.7909	0.55195	740.9444	52.1853	-265.4087	-52.6441	783.0359	0.33151	0.46185	0.011548	0.18258	-0.085651	0.64373	-0.0592	0.0182	-0.0073	-0.0462	0.0165	0.9585
6.8041	2.1755	739.6705	51.278	-264.975	-50.5687	777.8663	0.26879	0.68919	0.00056213	0.26788	-0.051866	0.89667	-0.0592	0.0182	-0.0073	-0.0462	0.0165	0.9585
6.8174	3.2824	740.8626	50.9241	-265.2255	-49.2397	775.5869	0.20401	0.80794	-0.0029603	0.31561	-0.027346	1.024	-0.0592	0.0182	-0.0073	-0.0462	0.0165	0.9585
6.8307	3.9451	743.8966	51.0849	-265.9288	-48.5925	775.5192	0.12392	0.84107	-0.0046326	0.33332	-0.00038023	1.0574	-0.0592	0.0182	-0.0073	-0.0462	0.0165	0.9585
6.844	4.2894	748.1336	51.6596	-266.8628	-48.4947	776.9546	0.049917	0.80014	-0.0076208	0.32581	0.030584	0.99951	-0.0592	0.0182	-0.0073	-0.0462	0.0165	0.9585
6.8573	4.4526	752.9777	52.5673	-267.8317	-48.8268	779.2288	-0.034185	0.67738	-0.021739	0.28836	0.078618	0.84499	-0.0592	0.0182	-0.0073	-0.0462	0.0165	0.9585
6.8706	4.5911	757.9157	53.6897	-268.6828	-49.4252	781.7672	-0.1431	0.43698	-0.045479	0.20612	0.14384	0.55083	-0.0592	0.0182	-0.0073	-0.0462	0.0165	0.9585
6.8839	4.824	762.5118	54.9193	-269.3018	-50.1437	784.0882	-0.27319	0.036612	-0.090188	0.059784	0.23468	0.067909	-0.0592	0.0182	-0.0073	-0.0462	0.0165	0.9585
6.8971	5.2469	766.413	56.1112	-269.6106	-50.8108	785.7793	-0.43058	-0.57078	-0.15005	-0.17037	0.34732	-0.65018	-0.0592	0.0182	-0.0073	-0.0462	0.0165	0.9585
6.9104	5.9257	769.3274	57.1416	-269.5507	-51.2827	786.4976	-0.59148	-1.4518	-0.23289	-0.50638	0.48594	-1.683	-0.0592	0.0182	-0.0073	-0.0462	0.0165	0.9585
6.9237	6.9135	770.9918	57.9194	-269.0674	-51.4505	785.9347	-0.73231	-2.6138	-0.32782	-0.95115	0.63355	-3.0335	-0.0592	0.0182	-0.0073	-0.0462	0.0165	0.9585
6.937	8.23	771.1991	58.4239	-268.1138	-51.2802	783.8499	-0.78682	-4.0172	-0.4296	-1.4884	0.7586	-4.6652	-0.0592	0.0182	-0.0073	-0.0462	0.0165	0.9585
6.9503	9.8614	769.8777	58.6837	-266.6776	-50.7921	780.1587	-0.68272	-5.5111	-0.50627	-2.0602	0.79491	-6.4065	-0.0592	0.0182	-0.0073	-0.0462	0.0165	0.9585
6.9636	11.7752	767.1252	58.768	-264.7961	-50.0518	774.9631	-0.30018	-6.7816	-0.52562	-2.5478	0.6582	-7.8967	-0.0592	0.0182	-0.0073	-0.0462	0.0165	0.9585
6.9769	13.9036	763.2206	58.773	-262.559	-49.1625	768.5717	0.52075	-7.3004	-0.4279	-2.7496	0.22333	-8.5329	-0.0592	0.0182	-0.0073	-0.0462	0.0165	0.9585
6.9901	16.1936	758.5608	58.8116	-260.0909	-48.2477	761.4106	1.923	-6.2847	-0.14083	-2.3683	-0.64208	-7.41	-0.0592	0.0182	-0.0073	-0.0462	0.0165	0.9585
7.0034	18.5898	753.5699	58.9828	-257.5257	-47.42	753.9403	4.0523	-2.685	0.42884	-1.0054	-2.0881	-3.3201	-0.0592	0.0182	-0.0073	-0.0462	0.0165	0.9585
7.0167	21.0508	748.6039	59.3474	-254.9755	-46.7585	746.5547	6.97	4.8014	1.3683	1.8291	-4.2302	5.249	-0.0592	0.0182	-0.0073	-0.0462	0.0165	0.9585
7.03	23.5267	743.7561	59.9239	-252.4652	-46.3034	739.394	10.5903	17.5526	2.746	6.657	-7.1065	19.8893	-0.0592	0.0182	-0.0073	-0.0462	0.0165	0.9585
